# xmcd
#
# Track frame offsets:
#	182
#	8985
#	19477
#	30750
#	39785
#	50962
#	62750
#	71752
#	82182
#	95360
#	102160
#	115345
#	123755
#	133885
#	141242
#
# Disc length: 2016 seconds
#
# Revision: 0
# Processed by: cddbd v1.5.1PL2 Copyright (c) Steve Scherf et al.
# Submitted via: dBpowerAMP V4.0
#
DISCID=d007de0f
DTITLE=Various Artist - Very Merry Country Christmas
DYEAR=1995
DGENRE=Country
TTITLE0=Jingle Bells
TTITLE1=The First Noel
TTITLE2=Joy to the World
TTITLE3=Deck the Halls
TTITLE4=Hark the Herald Angels Sing
TTITLE5=O Come, All Ye Faithful
TTITLE6=Christmas Tree
TTITLE7=Good King Wenceslas
TTITLE8=The First Noel
TTITLE9=Rejoice This Night
TTITLE10=O Holy Night
TTITLE11=Tannenbaum
TTITLE12=Little Town of Bethlehem
TTITLE13=It Came Upon A Midnight Clear
TTITLE14=Silent Night
EXTD=
EXTT0=
EXTT1=
EXTT2=
EXTT3=
EXTT4=
EXTT5=
EXTT6=
EXTT7=
EXTT8=
EXTT9=
EXTT10=
EXTT11=
EXTT12=
EXTT13=
EXTT14=
PLAYORDER=
